<svg width="572" height="512" viewBox="0 0 572 512" fill="none" xmlns="http://www.w3.org/2000/svg">
<path fill-rule="evenodd" clip-rule="evenodd" d="M24 0C10.7002 0 0 10.7 0 24C0 37.3 10.7002 48 24 48H69.5C73.3999 48 76.7002 50.7 77.3999 54.5L129 325.5C135.4 359.4 165.1 384 199.7 384H488C501.3 384 512 373.3 512 360C512 346.7 501.3 336 488 336H199.7C188.2 336 178.3 327.8 176.1 316.5L170.7 288H459.2C491.7 288 520.2 266.1 528.7 234.7L569.7 82.3999C576.6 57 557.4 32 531.1 32H120.1C111 12.8 91.5 0 69.5 0H24ZM131.654 445.631C129.242 451.455 128 457.697 128 464C128 470.303 129.242 476.545 131.654 482.369C134.066 488.192 137.602 493.484 142.059 497.941C146.516 502.398 151.808 505.934 157.631 508.346C163.455 510.759 169.697 512 176 512C182.303 512 188.545 510.759 194.369 508.346C200.192 505.934 205.484 502.398 209.941 497.941C214.398 493.484 217.934 488.192 220.346 482.369C222.758 476.545 224 470.303 224 464C224 457.697 222.758 451.455 220.346 445.631C217.934 439.808 214.398 434.516 209.941 430.059C205.484 425.602 200.192 422.066 194.369 419.654C188.545 417.241 182.303 416 176 416C169.697 416 163.455 417.241 157.631 419.654C151.808 422.066 146.516 425.602 142.059 430.059C137.602 434.516 134.066 439.808 131.654 445.631ZM497.941 430.059C488.939 421.057 476.73 416 464 416C451.27 416 439.061 421.057 430.059 430.059C421.057 439.061 416 451.27 416 464C416 476.73 421.057 488.939 430.059 497.941C439.061 506.943 451.27 512 464 512C476.73 512 488.939 506.943 497.941 497.941C506.943 488.939 512 476.73 512 464C512 451.27 506.943 439.061 497.941 430.059ZM174.819 79C160.55 79 149.724 91.8589 152.156 105.92L171.7 218.92C173.607 229.946 183.173 238 194.363 238H443.947C454.312 238 463.397 231.067 466.132 221.069L497.047 108.069C501.051 93.4341 490.036 79 474.862 79H174.819Z" fill="white"/>
</svg>
